#Comment line ignore any data following # character 
#Hierarchical Translation and Rotation (.htr) file 
[Header]	
#Header keywords are followed by a single value 
FileType HTR		#Single word string
DataType HTRS		#Translation followed by rotation and scale data
FileVersion 1		#integer
NumSegments 84		#integer
NumFrames 2		#integer
DataFrameRate 30		#integer, data frame rate in this file
EulerRotationOrder ZYX
CalibrationUnits mm
RotationUnits Degrees
GlobalAxisofGravity Y
BoneLengthAxis Y
ScaleFactor 1.00
[SegmentNames&Hierarchy]
#CHILD	PARENT
MASTER GLOBAL
root MASTER
chest root
L_mid_tent01 root
R_mid_tent01 root
spine01 root
Bip01_Neck chest
L_humerus chest
R_humerus chest
weapon_bone chest
Bip01_Head Bip01_Neck
eye_left_bone Bip01_Head
eye_right_bone Bip01_Head
L_forearm L_humerus
L_front_hand L_forearm
L_weapon_bone L_forearm
L_front_hand01_01 L_front_hand
L_front_hand02_01 L_front_hand
L_front_hand03_01 L_front_hand
L_front_hand01_02 L_front_hand01_01
L_front_hand02_02 L_front_hand02_01
L_front_hand03_02 L_front_hand03_01
R_forearm R_humerus
R_front_hand R_forearm
R_weapon_bone R_forearm
R_front_hand01_01 R_front_hand
R_front_hand02_01 R_front_hand
R_front_hand03_01 R_front_hand
R_front_hand01_02 R_front_hand01_01
R_front_hand02_02 R_front_hand02_01
R_front_hand03_02 R_front_hand03_01
null_rope01_connect L_mid_tent01
Rope1_Seg01 null_rope01_connect
Rope1_Seg02 Rope1_Seg01
Rope1_Seg03 Rope1_Seg02
Rope1_Seg04 Rope1_Seg03
Rope1_Seg05 Rope1_Seg04
Rope1_Seg06 Rope1_Seg05
Rope1_Seg07 Rope1_Seg06
Rope1_Seg09 Rope1_Seg07
L_mid_hand01 Rope1_Seg09
L_mid_hand02 Rope1_Seg09
L_mid_hand03 Rope1_Seg09
null_rope02_connect R_mid_tent01
Rope2_Seg01 null_rope02_connect
Rope2_Seg02 Rope2_Seg01
Rope2_Seg03 Rope2_Seg02
Rope2_Seg04 Rope2_Seg03
Rope2_Seg05 Rope2_Seg04
Rope2_Seg06 Rope2_Seg05
Rope2_Seg07 Rope2_Seg06
Rope2_Seg09 Rope2_Seg07
R_mid_hand01 Rope2_Seg09
R_mid_hand02 Rope2_Seg09
R_mid_hand03 Rope2_Seg09
spine02 spine01
spine03 spine02
pelvis spine03
null_rope03_connect pelvis
null_rope04_connect pelvis
Rope3_Seg01 null_rope03_connect
Rope3_Seg02 Rope3_Seg01
Rope3_Seg03 Rope3_Seg02
Rope3_Seg04 Rope3_Seg03
Rope3_Seg05 Rope3_Seg04
Rope3_Seg06 Rope3_Seg05
Rope3_Seg07 Rope3_Seg06
Rope3_Seg08 Rope3_Seg07
Rope3_Seg09 Rope3_Seg08
R_rear_hand01 Rope3_Seg09
R_rear_hand02 Rope3_Seg09
R_rear_hand03 Rope3_Seg09
Rope4_Seg01 null_rope04_connect
Rope4_Seg02 Rope4_Seg01
Rope4_Seg03 Rope4_Seg02
Rope4_Seg04 Rope4_Seg03
Rope4_Seg05 Rope4_Seg04
Rope4_Seg06 Rope4_Seg05
Rope4_Seg07 Rope4_Seg06
Rope4_Seg08 Rope4_Seg07
Rope4_Seg09 Rope4_Seg08
L_rear_hand01 Rope4_Seg09
L_rear_hand02 Rope4_Seg09
L_rear_hand03 Rope4_Seg09
[BasePosition]
#SegmentName Tx, Ty, Tz, Rx, Ry, Rz, BoneLength
MASTER 0.000000 0.000000 0.000000 -90.000000 0.000000 0.000000 10.000000 
root 0.000000 0.000000 0.000000 0.000000 0.000000 0.000000 10.000000 
chest 0.000000 0.000000 0.000000 0.000000 0.000000 0.000000 10.000000 
L_mid_tent01 0.000000 0.000000 0.000000 0.000000 0.000000 0.000000 10.000000 
R_mid_tent01 0.000000 0.000000 0.000000 0.000000 0.000000 0.000000 10.000000 
spine01 0.000000 0.000000 0.000000 0.000000 0.000000 0.000000 10.000000 
Bip01_Neck 0.000000 0.000000 0.000000 0.000000 0.000000 0.000000 10.000000 
L_humerus 0.000000 0.000000 0.000000 0.000000 0.000000 0.000000 10.000000 
R_humerus 0.000000 0.000000 0.000000 0.000000 0.000000 0.000000 10.000000 
weapon_bone 0.000000 0.000000 0.000000 0.000000 0.000000 0.000000 10.000000 
Bip01_Head 0.000000 0.000000 0.000000 0.000000 0.000000 0.000000 10.000000 
eye_left_bone 0.000000 0.000000 0.000000 0.000000 0.000000 0.000000 10.000000 
eye_right_bone 0.000000 0.000000 0.000000 0.000000 0.000000 0.000000 10.000000 
L_forearm 0.000000 0.000000 0.000000 0.000000 0.000000 0.000000 10.000000 
L_front_hand 0.000000 0.000000 0.000000 0.000000 0.000000 0.000000 10.000000 
L_weapon_bone 0.000000 0.000000 0.000000 0.000000 0.000000 0.000000 10.000000 
L_front_hand01_01 0.000000 0.000000 0.000000 0.000000 0.000000 0.000000 10.000000 
L_front_hand02_01 0.000000 0.000000 0.000000 0.000000 0.000000 0.000000 10.000000 
L_front_hand03_01 0.000000 0.000000 0.000000 0.000000 0.000000 0.000000 10.000000 
L_front_hand01_02 0.000000 0.000000 0.000000 0.000000 0.000000 0.000000 10.000000 
L_front_hand02_02 0.000000 0.000000 0.000000 0.000000 0.000000 0.000000 10.000000 
L_front_hand03_02 0.000000 0.000000 0.000000 0.000000 0.000000 0.000000 10.000000 
R_forearm 0.000000 0.000000 0.000000 0.000000 0.000000 0.000000 10.000000 
R_front_hand 0.000000 0.000000 0.000000 0.000000 0.000000 0.000000 10.000000 
R_weapon_bone 0.000000 0.000000 0.000000 0.000000 0.000000 0.000000 10.000000 
R_front_hand01_01 0.000000 0.000000 0.000000 0.000000 0.000000 0.000000 10.000000 
R_front_hand02_01 0.000000 0.000000 0.000000 0.000000 0.000000 0.000000 10.000000 
R_front_hand03_01 0.000000 0.000000 0.000000 0.000000 0.000000 0.000000 10.000000 
R_front_hand01_02 0.000000 0.000000 0.000000 0.000000 0.000000 0.000000 10.000000 
R_front_hand02_02 0.000000 0.000000 0.000000 0.000000 0.000000 0.000000 10.000000 
R_front_hand03_02 0.000000 0.000000 0.000000 0.000000 0.000000 0.000000 10.000000 
null_rope01_connect 0.000000 0.000000 0.000000 0.000000 0.000000 0.000000 10.000000 
Rope1_Seg01 0.000000 0.000000 0.000000 0.000000 0.000000 0.000000 10.000000 
Rope1_Seg02 0.000000 0.000000 0.000000 0.000000 0.000000 0.000000 10.000000 
Rope1_Seg03 0.000000 0.000000 0.000000 0.000000 0.000000 0.000000 10.000000 
Rope1_Seg04 0.000000 0.000000 0.000000 0.000000 0.000000 0.000000 10.000000 
Rope1_Seg05 0.000000 0.000000 0.000000 0.000000 0.000000 0.000000 10.000000 
Rope1_Seg06 0.000000 0.000000 0.000000 0.000000 0.000000 0.000000 10.000000 
Rope1_Seg07 0.000000 0.000000 0.000000 0.000000 0.000000 0.000000 10.000000 
Rope1_Seg09 0.000000 0.000000 0.000000 0.000000 0.000000 0.000000 10.000000 
L_mid_hand01 0.000000 0.000000 0.000000 0.000000 0.000000 0.000000 10.000000 
L_mid_hand02 0.000000 0.000000 0.000000 0.000000 0.000000 0.000000 10.000000 
L_mid_hand03 0.000000 0.000000 0.000000 0.000000 0.000000 0.000000 10.000000 
null_rope02_connect 0.000000 0.000000 0.000000 0.000000 0.000000 0.000000 10.000000 
Rope2_Seg01 0.000000 0.000000 0.000000 0.000000 0.000000 0.000000 10.000000 
Rope2_Seg02 0.000000 0.000000 0.000000 0.000000 0.000000 0.000000 10.000000 
Rope2_Seg03 0.000000 0.000000 0.000000 0.000000 0.000000 0.000000 10.000000 
Rope2_Seg04 0.000000 0.000000 0.000000 0.000000 0.000000 0.000000 10.000000 
Rope2_Seg05 0.000000 0.000000 0.000000 0.000000 0.000000 0.000000 10.000000 
Rope2_Seg06 0.000000 0.000000 0.000000 0.000000 0.000000 0.000000 10.000000 
Rope2_Seg07 0.000000 0.000000 0.000000 0.000000 0.000000 0.000000 10.000000 
Rope2_Seg09 0.000000 0.000000 0.000000 0.000000 0.000000 0.000000 10.000000 
R_mid_hand01 0.000000 0.000000 0.000000 0.000000 0.000000 0.000000 10.000000 
R_mid_hand02 0.000000 0.000000 0.000000 0.000000 0.000000 0.000000 10.000000 
R_mid_hand03 0.000000 0.000000 0.000000 0.000000 0.000000 0.000000 10.000000 
spine02 0.000000 0.000000 0.000000 0.000000 0.000000 0.000000 10.000000 
spine03 0.000000 0.000000 0.000000 0.000000 0.000000 0.000000 10.000000 
pelvis 0.000000 0.000000 0.000000 0.000000 0.000000 0.000000 10.000000 
null_rope03_connect 0.000000 0.000000 0.000000 0.000000 0.000000 0.000000 10.000000 
null_rope04_connect 0.000000 0.000000 0.000000 0.000000 0.000000 0.000000 10.000000 
Rope3_Seg01 0.000000 0.000000 0.000000 0.000000 0.000000 0.000000 10.000000 
Rope3_Seg02 0.000000 0.000000 0.000000 0.000000 0.000000 0.000000 10.000000 
Rope3_Seg03 0.000000 0.000000 0.000000 0.000000 0.000000 0.000000 10.000000 
Rope3_Seg04 0.000000 0.000000 0.000000 0.000000 0.000000 0.000000 10.000000 
Rope3_Seg05 0.000000 0.000000 0.000000 0.000000 0.000000 0.000000 10.000000 
Rope3_Seg06 0.000000 0.000000 0.000000 0.000000 0.000000 0.000000 10.000000 
Rope3_Seg07 0.000000 0.000000 0.000000 0.000000 0.000000 0.000000 10.000000 
Rope3_Seg08 0.000000 0.000000 0.000000 0.000000 0.000000 0.000000 10.000000 
Rope3_Seg09 0.000000 0.000000 0.000000 0.000000 0.000000 0.000000 10.000000 
R_rear_hand01 0.000000 0.000000 0.000000 0.000000 0.000000 0.000000 10.000000 
R_rear_hand02 0.000000 0.000000 0.000000 0.000000 0.000000 0.000000 10.000000 
R_rear_hand03 0.000000 0.000000 0.000000 0.000000 0.000000 0.000000 10.000000 
Rope4_Seg01 0.000000 0.000000 0.000000 0.000000 0.000000 0.000000 10.000000 
Rope4_Seg02 0.000000 0.000000 0.000000 0.000000 0.000000 0.000000 10.000000 
Rope4_Seg03 0.000000 0.000000 0.000000 0.000000 0.000000 0.000000 10.000000 
Rope4_Seg04 0.000000 0.000000 0.000000 0.000000 0.000000 0.000000 10.000000 
Rope4_Seg05 0.000000 0.000000 0.000000 0.000000 0.000000 0.000000 10.000000 
Rope4_Seg06 0.000000 0.000000 0.000000 0.000000 0.000000 0.000000 10.000000 
Rope4_Seg07 0.000000 0.000000 0.000000 0.000000 0.000000 0.000000 10.000000 
Rope4_Seg08 0.000000 0.000000 0.000000 0.000000 0.000000 0.000000 10.000000 
Rope4_Seg09 0.000000 0.000000 0.000000 0.000000 0.000000 0.000000 10.000000 
L_rear_hand01 0.000000 0.000000 0.000000 0.000000 0.000000 0.000000 10.000000 
L_rear_hand02 0.000000 0.000000 0.000000 0.000000 0.000000 0.000000 10.000000 
L_rear_hand03 0.000000 0.000000 0.000000 0.000000 0.000000 0.000000 10.000000 
#Beginning of Data. Separated by tabs
#Fr	Tx	Ty	Tz	Rx	Ry	Rz	SF
[MASTER]
13 0.000000 0.000000 0.000000 0.001660 0.001660 0.001660 0.000000
14 0.000000 0.000000 0.000000 0.001660 0.001660 0.001660 0.000000
[root]
13 -20.799295 -56.529808 1479.267578 -91.190353 -27.697557 -89.847588 1480.493530
14 -25.426811 -49.753510 1453.369629 -90.720100 -27.731230 -89.525002 1454.443237
[chest]
13 -84.512650 -34.090519 0.000000 -1.110345 0.163164 -168.668488 91.129311
14 -84.512650 -34.090519 0.000000 -0.903949 0.090868 -166.438904 91.129311
[L_mid_tent01]
13 27.299500 22.177483 -249.917984 -1.945549 37.943027 71.977463 252.380859
14 27.299500 22.177483 -249.917984 0.239940 38.057384 75.347557 252.380859
[R_mid_tent01]
13 23.228794 24.509907 226.238495 164.124664 -45.800896 79.798195 228.744751
14 23.228794 24.509907 226.238495 162.367844 -46.741104 82.934845 228.744751
[spine01]
13 -0.361383 -0.195265 0.000000 0.001889 0.001395 17.098061 0.410763
14 -0.361383 -0.195265 0.000000 0.001890 0.001393 17.228422 0.410763
[Bip01_Neck]
13 165.484543 71.581718 0.000119 175.896118 1.177290 24.871183 180.302734
14 165.484543 71.581718 0.000119 175.896118 1.177290 24.871180 180.302734
[L_humerus]
13 -13.983130 -135.272980 -120.471481 -176.552612 2.322383 -122.884117 181.680161
14 -13.983130 -135.272980 -120.471481 -177.472458 2.946744 -123.585815 181.680161
[R_humerus]
13 -13.983309 -135.273102 125.287651 -179.639572 -1.607667 -121.842186 184.909012
14 -13.983309 -135.273102 125.287651 -179.639572 -1.607667 -121.842201 184.909012
[weapon_bone]
13 235.964890 -300.705902 0.000000 0.000000 -89.951546 -128.212341 382.234833
14 235.964890 -300.705902 0.000000 0.000000 -89.951546 -128.212341 382.234833
[Bip01_Head]
13 104.581429 33.114399 6.068787 3.058798 3.445091 -20.936562 109.866592
14 102.819786 23.735655 5.410213 3.150731 3.423702 -20.839094 105.662483
[eye_left_bone]
13 -24.626970 125.451866 -64.772606 0.000000 -90.000000 -99.840431 143.318359
14 -24.626970 125.451866 -64.772606 0.000000 -90.000000 -99.840431 143.318359
[eye_right_bone]
13 -24.626970 125.451866 64.327362 0.000000 -89.972023 80.159393 143.117676
14 -24.626970 125.451866 64.327362 0.000000 -89.972023 80.159393 143.117676
[L_forearm]
13 322.776093 0.000000 -0.000119 0.000307 0.002327 -74.948013 322.776093
14 322.776093 0.000000 -0.000119 0.000302 0.002328 -75.213341 322.776093
[L_front_hand]
13 241.149185 -0.042021 -3.300071 -179.679062 -2.243488 0.450440 241.171753
14 241.149185 -0.042021 -3.300071 -179.549622 -2.221651 -2.896557 241.171753
[L_weapon_bone]
13 156.183838 0.000000 0.000000 0.001790 0.001518 9.409043 156.183838
14 156.183838 0.000000 0.000000 0.001808 0.001496 10.794277 156.183838
[L_front_hand01_01]
13 86.095154 20.947098 -0.655860 0.405585 -0.442306 -4.620490 88.609184
14 86.095154 20.947098 -0.655860 0.405585 -0.442306 -4.620490 88.609184
[L_front_hand02_01]
13 86.935165 -11.437475 24.513514 116.959450 3.630817 1.495453 91.046425
14 86.935165 -11.437475 24.513514 116.959450 3.630817 1.495453 91.046425
[L_front_hand03_01]
13 86.637497 -14.123976 -20.424902 -118.420097 -4.656303 -0.152527 90.126129
14 86.637497 -14.123976 -20.424902 -118.420097 -4.656303 -0.152527 90.126129
[L_front_hand01_02]
13 71.020905 -0.000179 0.000030 0.001534 0.001777 -8.378850 71.020905
14 71.020905 -0.000179 0.000030 0.001534 0.001777 -8.378850 71.020905
[L_front_hand02_02]
13 71.020927 -0.000119 0.000060 0.001534 0.001777 -8.378850 71.020927
14 71.020927 -0.000119 0.000060 0.001534 0.001777 -8.378850 71.020927
[L_front_hand03_02]
13 71.020905 -0.000060 0.000060 0.001534 0.001777 -8.378850 71.020905
14 71.020905 -0.000060 0.000060 0.001534 0.001777 -8.378850 71.020905
[R_forearm]
13 322.776428 -0.000060 0.000030 0.195793 -0.090001 -66.584152 322.776428
14 322.776428 -0.000060 0.000030 0.197022 -0.086345 -67.718819 322.776428
[R_front_hand]
13 238.847015 -0.006795 2.210259 -0.421185 1.675349 -2.814533 238.857239
14 238.847015 -0.006795 2.210259 -0.301553 1.701444 1.233443 238.857239
[R_weapon_bone]
13 155.664093 0.002503 -0.000030 0.003426 0.001345 -96.478874 155.664078
14 155.664093 0.002503 -0.000030 0.003416 0.001371 -97.337944 155.664078
[R_front_hand01_01]
13 87.624611 14.231146 22.918642 -116.960213 3.496675 -1.324139 91.683487
14 87.624611 14.231146 22.918642 -116.960213 3.496675 -1.324139 91.683487
[R_front_hand02_01]
13 89.356956 14.367283 -19.491137 118.419647 -4.257089 0.609827 92.579636
14 89.356956 14.367283 -19.491137 118.419647 -4.257089 0.609827 92.579636
[R_front_hand03_01]
13 87.286232 -22.307278 -0.143439 -0.387970 -0.231462 4.232001 90.091743
14 87.286232 -22.307278 -0.143439 -0.387970 -0.231462 4.232001 90.091743
[R_front_hand01_02]
13 71.020905 0.000060 0.000119 0.001777 0.001534 8.377220 71.020905
14 71.020905 0.000060 0.000119 0.001777 0.001534 8.377220 71.020905
[R_front_hand02_02]
13 71.020844 -0.000030 -0.000119 0.001777 0.001534 8.377220 71.020836
14 71.020844 -0.000030 -0.000119 0.001777 0.001534 8.377220 71.020836
[R_front_hand03_02]
13 71.020905 0.000000 0.000030 0.001777 0.001534 8.377220 71.020905
14 71.020905 0.000000 0.000030 0.001777 0.001534 8.377220 71.020905
[null_rope01_connect]
13 328.732483 0.000000 -0.000238 -137.966751 -50.967293 -176.843414 328.732483
14 328.732483 0.000000 -0.000238 -137.904541 -51.569546 -179.441116 328.732483
[Rope1_Seg01]
13 0.000000 0.000000 0.000000 103.689285 36.235802 124.393890 0.000000
14 0.000000 0.000000 0.000000 103.994469 40.733788 125.131638 0.000000
[Rope1_Seg02]
13 139.999863 -0.000179 0.000000 -0.542698 -6.455853 1.131990 139.999863
14 139.999863 -0.000179 0.000000 -0.355823 -6.410763 2.136841 139.999863
[Rope1_Seg03]
13 139.999924 0.000060 -0.000060 -1.803000 -10.566782 0.769483 139.999924
14 139.999924 0.000060 -0.000060 -1.490438 -10.494104 2.453299 139.999924
[Rope1_Seg04]
13 139.999924 -0.000060 -0.000119 -7.268845 -21.403162 -1.724647 139.999924
14 139.999924 -0.000060 -0.000119 -6.981349 -20.992117 3.342577 139.999924
[Rope1_Seg05]
13 139.999832 0.000119 -0.000060 1.782184 -11.872911 19.516602 139.999832
14 139.999832 0.000119 -0.000060 1.914129 -10.999879 17.865641 139.999832
[Rope1_Seg06]
13 139.999954 0.000119 -0.000060 4.540000 -2.799249 7.694597 139.999954
14 139.999954 0.000119 -0.000060 3.229076 -2.810581 6.404302 139.999954
[Rope1_Seg07]
13 139.999985 0.000060 0.000000 1.828183 -1.660574 3.379081 139.999985
14 139.999985 0.000060 0.000000 1.332244 -1.701018 3.029325 139.999985
[Rope1_Seg09]
13 121.602913 0.000119 -0.000089 -89.793175 -1.359789 0.847147 121.602913
14 121.602913 0.000119 -0.000089 -89.793175 -1.359789 0.847147 121.602913
[L_mid_hand01]
13 103.859421 1.038730 8.195221 106.671860 -30.228205 -9.107726 104.187431
14 103.859421 1.038730 8.195221 106.535561 -29.425709 -8.830461 104.187431
[L_mid_hand02]
13 105.572853 -4.139662 -10.864139 -141.936981 25.104256 -27.848751 106.211075
14 105.572853 -4.139662 -10.864139 -141.630783 24.587261 -27.128452 106.211075
[L_mid_hand03]
13 104.641464 17.579376 -3.913581 -16.292583 9.436375 33.195415 106.179977
14 104.641464 17.579376 -3.913581 -16.426481 9.206183 32.384064 106.179977
[null_rope02_connect]
13 328.732849 0.000179 -0.000119 -119.816696 42.982555 15.861107 328.732849
14 328.732849 0.000179 -0.000119 -121.082764 40.986511 16.730087 328.732849
[Rope2_Seg01]
13 0.000095 0.000153 0.000018 -49.071796 43.138458 51.645901 0.000181
14 0.000095 0.000153 0.000020 -52.566177 48.071518 47.938366 0.000181
[Rope2_Seg02]
13 139.999741 -0.000060 -0.000119 -0.013445 -5.371780 1.799619 139.999756
14 139.999741 -0.000060 -0.000119 0.154212 -6.339464 1.449422 139.999756
[Rope2_Seg03]
13 140.000107 0.000030 0.000000 -0.130008 -6.662694 2.431942 140.000107
14 140.000107 0.000030 0.000000 -0.038088 -8.309904 1.844194 140.000107
[Rope2_Seg04]
13 139.999802 0.000000 -0.000060 -1.147043 -16.199137 5.607345 139.999802
14 139.999802 0.000000 -0.000060 -1.492949 -18.909487 4.603699 139.999802
[Rope2_Seg05]
13 139.999985 -0.000060 0.000119 -3.362159 -20.087622 5.276692 139.999985
14 139.999985 -0.000060 0.000119 -3.156575 -19.497591 5.279353 139.999985
[Rope2_Seg06]
13 139.999893 -0.000030 -0.000119 -1.332715 -5.748935 1.227432 139.999893
14 139.999893 -0.000030 -0.000119 -1.318745 -5.763784 1.241762 139.999893
[Rope2_Seg07]
13 139.999893 0.000060 -0.000060 -0.849927 -3.011317 0.588025 139.999893
14 139.999893 0.000060 -0.000060 -0.874635 -3.050846 0.579081 139.999893
[Rope2_Seg09]
13 121.338966 0.000089 -0.000060 33.793236 -1.359788 -0.847141 121.338966
14 121.338966 0.000089 -0.000060 33.793236 -1.359788 -0.847141 121.338966
[R_mid_hand01]
13 104.680779 11.144459 -10.335981 -42.094612 24.326786 27.243237 105.778534
14 104.680779 11.144459 -10.335981 -42.355297 23.795420 26.602457 105.778534
[R_mid_hand02]
13 104.070427 2.443552 8.231699 73.151207 -31.171410 9.443556 104.424065
14 104.070427 2.443552 8.231699 73.284096 -30.416557 9.178637 104.424065
[R_mid_hand03]
13 106.028137 -11.221827 -5.996406 -167.614822 9.907938 -35.373013 106.788818
14 106.028137 -11.221827 -5.996406 -167.481155 9.740767 -34.592205 106.788818
[spine02]
13 129.756927 0.001550 0.000119 -0.743249 -4.001370 2.618173 129.756927
14 129.756927 0.001550 0.000119 -0.782104 -3.994356 3.166100 129.756927
[spine03]
13 78.734192 0.066333 -3.723084 -0.236549 4.404558 -12.360180 78.822189
14 78.744225 0.064587 -3.625108 -0.294452 4.409468 -13.069607 78.827652
[pelvis]
13 169.435242 0.051022 0.000000 -1.679887 -1.010149 1.873621 169.435257
14 169.435242 0.051022 0.000000 -1.821715 -1.073505 2.189608 169.435257
[null_rope03_connect]
13 -1.257226 -2.466202 137.391083 -173.590240 -87.033768 -77.927414 137.418976
14 -1.257226 -2.466202 137.391083 175.476074 -87.268211 -67.226532 137.418976
[null_rope04_connect]
13 -1.259640 -2.480268 -137.844437 -173.590240 -87.033768 -77.927414 137.872513
14 -1.259640 -2.480268 -137.844437 175.476074 -87.268211 -67.226532 137.872513
[Rope3_Seg01]
13 0.000000 0.000000 0.000000 -145.539902 -51.906483 -66.189102 0.000000
14 0.000000 0.000000 0.000000 -144.445831 -48.222702 -65.882095 0.000000
[Rope3_Seg02]
13 139.999924 -0.000119 0.000060 -4.636709 4.436516 -11.082166 139.999924
14 139.999924 -0.000119 0.000060 -5.640281 4.683642 -13.321180 139.999924
[Rope3_Seg03]
13 139.999924 -0.000119 0.000119 -22.934540 13.797740 -29.234924 139.999924
14 139.999924 -0.000119 0.000119 -33.343246 16.775213 -37.448177 139.999924
[Rope3_Seg04]
13 139.999924 0.000119 0.000000 -36.522198 29.458693 -28.177448 139.999924
14 139.999924 0.000119 0.000000 -33.925568 30.800383 -23.150797 139.999924
[Rope3_Seg05]
13 139.999924 -0.000238 0.000060 -13.982063 22.808071 -8.866667 139.999924
14 139.999924 -0.000238 0.000060 -15.675414 27.401848 -10.393888 139.999924
[Rope3_Seg06]
13 139.999893 -0.000119 -0.000060 -11.271351 30.191011 -8.967635 139.999893
14 139.999893 -0.000119 -0.000060 -7.503529 28.759434 -5.751976 139.999893
[Rope3_Seg07]
13 139.999771 0.000060 -0.000119 -1.669380 18.436380 -1.897853 139.999771
14 139.999771 0.000060 -0.000119 -0.164709 10.927947 -0.337023 139.999771
[Rope3_Seg08]
13 139.999985 -0.000060 0.000000 0.498659 6.851977 -0.305393 139.999985
14 139.999985 -0.000060 0.000000 0.556802 4.964259 -0.097959 139.999985
[Rope3_Seg09]
13 90.185997 -0.000179 -0.000060 89.793228 -1.359877 -0.847183 90.185997
14 90.185997 -0.000179 -0.000060 89.793228 -1.359877 -0.847183 90.185997
[R_rear_hand01]
13 103.366196 -6.073594 -10.757982 -161.213135 16.280876 -28.891563 104.101845
14 103.366196 -6.073594 -10.757982 -161.013535 16.046759 -28.176800 104.101845
[R_rear_hand02]
13 100.509819 12.039542 -7.992327 -34.621265 18.604885 27.818886 101.543350
14 100.509819 12.039542 -7.992327 -34.821754 18.194588 27.192648 101.543350
[R_rear_hand03]
13 101.539970 5.215704 5.435467 83.447456 -29.727467 7.122809 101.819031
14 101.539970 5.215704 5.435467 83.494827 -29.007263 7.028542 101.819031
[Rope4_Seg01]
13 0.000000 0.000000 0.000000 47.984112 -39.212849 -98.699364 0.000000
14 0.000000 0.000000 0.000000 47.787659 -34.451008 -99.357094 0.000000
[Rope4_Seg02]
13 139.999985 0.000060 0.000119 2.706573 -18.747963 6.267355 139.999985
14 139.999985 0.000060 0.000119 3.789124 -25.023317 7.546518 139.999985
[Rope4_Seg03]
13 139.999924 0.000000 -0.000238 21.590839 -45.631721 24.008337 139.999924
14 139.999924 0.000000 -0.000238 29.133804 -50.384373 28.669365 139.999924
[Rope4_Seg04]
13 139.999985 0.000000 0.000119 23.739172 -15.895958 22.949825 139.999985
14 139.999985 0.000000 0.000119 19.475136 -8.890092 19.389090 139.999985
[Rope4_Seg05]
13 139.999802 -0.000060 -0.000119 11.703310 -2.774940 15.541982 139.999802
14 139.999802 -0.000060 -0.000119 13.654769 -2.361904 19.880522 139.999802
[Rope4_Seg06]
13 139.999924 0.000000 0.000060 12.854916 0.607590 27.972652 139.999924
14 139.999924 0.000000 0.000060 12.185562 3.542688 33.020115 139.999924
[Rope4_Seg07]
13 139.999802 0.000000 0.000000 5.337176 6.095677 25.400822 139.999802
14 139.999802 0.000000 0.000000 2.127969 5.266777 16.631334 139.999802
[Rope4_Seg08]
13 139.999924 0.000000 0.000119 -1.354594 2.936874 9.025619 139.999924
14 139.999924 0.000000 0.000119 -1.580427 2.348620 6.696353 139.999924
[Rope4_Seg09]
13 90.185791 0.000060 0.000060 -135.617828 2.228885 0.850567 90.185791
14 90.185791 0.000060 0.000060 -135.617828 2.228885 0.850567 90.185791
[L_rear_hand01]
13 101.696655 -8.392275 -7.654577 -34.862450 -18.100374 152.943054 102.329041
14 101.696655 -8.392275 -7.654577 -35.072067 -17.643608 153.629242 102.329041
[L_rear_hand02]
13 102.726799 -1.568258 5.773216 83.506805 28.852577 172.989426 102.900848
14 102.726799 -1.568258 5.773216 83.555130 28.062008 173.094818 102.900848
[L_rear_hand03]
13 104.552910 9.721220 -10.420293 -160.969757 -15.991232 -151.977692 105.519653
14 104.552910 9.721220 -10.420293 -160.756256 -15.730824 -152.755524 105.519653
